<?xml version="1.0" encoding="utf-8"?>
<!-- Generator: Adobe Illustrator 23.1.0, SVG Export Plug-In . SVG Version: 6.00 Build 0)  -->
<svg version="1.1" id="Layer_1" xmlns="http://www.w3.org/2000/svg" xmlns:xlink="http://www.w3.org/1999/xlink" x="0px" y="0px"
	 viewBox="0 0 142.9 62.1" style="enable-background:new 0 0 142.9 62.1;" xml:space="preserve">
<style type="text/css">
	.st0{fill:#040000;}
</style>
<g>
	<path class="st0" d="M105.9,83.6h4.8c1.8,0,3.6-0.1,5.5-0.2c1.9-0.1,3.6-0.3,5.3-0.5l0.3,2.2c-1.9,0.3-3.8,0.5-5.8,0.6
		c-2,0.1-3.9,0.2-5.9,0.2h-6.7V73.4h11.7v-7.1h-11.7v-2.2h14.2v11.5h-11.7V83.6z M127.6,93.8h-2.5V61.5h2.5V93.8z"/>
</g>
<g>
	<g>
		<path d="M12.2,25.7c-0.3,0.1-0.7,0-1-0.2c-0.1-0.1-0.3-0.2-0.4-0.4c-0.2-0.2-0.3-0.4-0.5-0.6c-0.1-0.2-0.2-0.4-0.3-0.6
			c-0.1-0.2-0.1-0.3,0-0.4c0-0.1,0.1-0.1,0.3-0.1c0.1,0,0.3,0,0.5,0c0.2,0,0.3,0.1,0.5,0.1c0.2,0,0.3,0,0.4,0c0.6,0,1.3,0,2,0
			c0.7,0,1.4,0,2.2-0.1c0.7,0,1.4-0.1,2.2-0.1c0.7,0,1.4-0.1,2-0.2c0.4,0,0.8,0,1,0.2c0.3,0.2,0.4,0.5,0.4,0.9
			c0,0.4-0.1,0.7-0.4,0.9c-0.3,0.2-0.6,0.3-0.9,0.2c-0.5,0-1.2-0.1-1.8-0.1c-0.8,0-1.5,0-2.2,0c-0.8,0.1-1.5,0.1-2.2,0.2
			C13.3,25.5,12.7,25.6,12.2,25.7z M13.2,20.3c-0.2-0.2-0.3-0.3-0.4-0.5c-0.1-0.2-0.1-0.4,0.1-0.6c0.1-0.1,0.2-0.2,0.4-0.3
			c0.2,0,0.4,0,0.6,0.1c0.5,0.2,1.1,0.4,1.8,0.6c0.7,0.2,1.4,0.4,1.9,0.5c0.3,0.1,0.5,0.2,0.7,0.5c0.1,0.3,0.1,0.6,0,0.9
			c-0.1,0.4-0.4,0.6-0.7,0.6c-0.3,0-0.7,0-1.1,0c-0.6-0.1-1.2-0.3-1.9-0.7C14.1,21,13.6,20.7,13.2,20.3z M13,29.2
			c0-0.7,0.2-1.3,0.8-1.8c0.5-0.5,1.3-0.7,2.3-0.7c1,0,1.8,0.2,2.4,0.7c0.5,0.5,0.8,1.1,0.8,1.8c0,0.7-0.3,1.3-0.8,1.8
			c-0.5,0.5-1.3,0.8-2.4,0.8c-1.1,0-1.8-0.2-2.3-0.8C13.3,30.5,13,29.9,13,29.2z M15,29.2c0,0.3,0.1,0.5,0.3,0.7
			c0.2,0.2,0.4,0.3,0.8,0.3c0.3,0,0.6-0.1,0.8-0.3c0.2-0.2,0.3-0.4,0.3-0.7c0-0.3-0.1-0.5-0.3-0.7c-0.2-0.1-0.5-0.2-0.8-0.2
			c-0.4,0-0.6,0.1-0.8,0.2C15.1,28.8,15,29,15,29.2z M23.8,40.9c-1.1,0-1.8-0.2-2.3-0.5c-0.5-0.3-0.9-0.9-1.1-1.7
			c-0.1-0.3-0.2-0.6-0.2-1c-0.1-0.3-0.2-0.8-0.3-1.2c-0.1-0.1-0.1-0.3-0.2-0.5c-0.1-0.2-0.3-0.4-0.5-0.5c-0.3-0.2-0.5-0.4-0.6-0.7
			c-0.1-0.2-0.1-0.4,0.1-0.6c0.2-0.2,0.4-0.3,0.6-0.3c0.2,0,0.5,0,0.8,0.1c0.4,0.1,0.9,0.3,1.3,0.5c0.4,0.2,0.6,0.5,0.7,0.9
			c0,0.5,0.1,1.1,0.2,1.7c0,0.6,0.1,1.1,0.3,1.4c0.2,0.3,0.4,0.5,0.8,0.6c0.3,0.1,0.6,0.2,0.9,0.2c0.4,0,0.8,0,1.3-0.2
			c0.4-0.1,0.9-0.2,1.5-0.4c0.3-0.1,0.7-0.1,1-0.1c0.3,0.1,0.4,0.3,0.6,0.6c0.1,0.3,0,0.6-0.1,0.8c-0.2,0.2-0.4,0.3-0.6,0.4
			c-0.8,0.2-1.4,0.3-1.9,0.4C25.4,40.9,24.6,40.9,23.8,40.9z M28.7,32.3c-0.1,0.8-0.2,1.4-0.3,1.7c-0.2,0.4-0.4,0.6-0.8,0.7
			c-0.3,0.1-0.5,0-0.6-0.1c-0.2-0.1-0.3-0.3-0.3-0.7c-0.1-0.3-0.2-0.6-0.2-1.1c-0.1-0.4-0.1-0.9-0.1-1.4v-2.7
			c-0.3,0-0.6,0.1-0.9,0.1c-0.3,0.1-0.6,0.1-0.9,0.1c-0.2,0.1-0.5,0-0.8-0.1c-0.3-0.1-0.6-0.2-0.8-0.3c-0.3-0.1-0.4-0.3-0.5-0.6
			c-0.1-0.2-0.2-0.5,0-0.8c0-0.1,0.1-0.2,0.3-0.3c0.2,0,0.4-0.1,0.6-0.1c0.2,0,0.4,0,0.7,0c0.2,0,0.5,0,0.7,0c0.3,0,0.5,0,0.8,0
			c0.2,0,0.5,0,0.8,0c0-0.4,0-0.9,0-1.3v-1.2l-0.9,0.1c-0.3,0.1-0.6,0.1-0.9,0.1c-0.2,0.1-0.5,0-0.8-0.1c-0.3-0.1-0.6-0.2-0.8-0.3
			c-0.3-0.1-0.4-0.3-0.5-0.6c-0.1-0.2-0.2-0.5,0-0.8c0-0.1,0.1-0.2,0.3-0.3c0.2,0,0.4-0.1,0.6-0.1c0.2,0,0.4,0,0.7,0
			c0.2,0,0.5,0,0.7,0c0.3,0,0.5,0,0.8,0c0.3,0,0.5,0,0.8,0c0-0.3-0.1-0.6-0.1-1c0-0.3-0.1-0.6-0.2-1c-0.1-0.3-0.3-0.6-0.5-1
			c-0.2-0.3-0.5-0.5-0.9-0.8c-0.3-0.1-0.5-0.4-0.7-0.6c-0.2-0.3-0.2-0.5,0.1-0.9c0.1-0.1,0.4-0.2,0.8-0.3c0.3,0,0.6,0,0.9,0
			c0.9,0.2,1.6,0.5,2.2,1.1c0.5,0.5,0.8,1.4,0.8,2.5v5.7C28.8,28.1,28.8,30.2,28.7,32.3z"/>
		<path d="M33,25.9c0-0.6,0.1-1.2,0.3-1.8c0.2-0.5,0.5-1,0.9-1.3c0.3-0.3,0.8-0.6,1.3-0.8c0.5-0.2,1-0.3,1.6-0.3
			c0.5,0,1.1,0.1,1.6,0.3c0.5,0.2,0.9,0.5,1.3,0.8c0.3,0.4,0.6,0.8,0.9,1.3c0.2,0.5,0.3,1.1,0.3,1.8c0,0.7-0.1,1.3-0.3,1.7
			c-0.2,0.5-0.5,1-0.9,1.3c-0.4,0.4-0.9,0.6-1.3,0.8c-0.5,0.2-1.1,0.3-1.6,0.3c-0.6,0-1.1-0.1-1.6-0.3c-0.5-0.2-1-0.4-1.3-0.8
			c-0.4-0.3-0.7-0.8-0.9-1.3C33.1,27.1,33,26.6,33,25.9z M35.1,25.9c0,0.8,0.2,1.3,0.6,1.6c0.4,0.3,0.9,0.5,1.5,0.5
			c0.5,0,1.1-0.2,1.5-0.5c0.4-0.3,0.6-0.9,0.6-1.6c0-0.7-0.2-1.3-0.6-1.7c-0.4-0.3-0.9-0.5-1.5-0.5c-0.6,0-1.1,0.2-1.5,0.5
			C35.3,24.6,35.1,25.2,35.1,25.9z M45.3,32.9c-0.2-0.1-0.3-0.2-0.4-0.4c-0.1-0.2-0.1-0.4,0-0.6c0.1-0.2,0.3-0.3,0.7-0.2
			c0.3,0.1,0.6,0.1,0.9,0.1c0.8,0.2,1.4,0.5,1.6,1c0.2,0.5,0.3,1,0.3,1.5c0,0.4,0,0.8,0,1.3c0,0.5-0.1,1-0.1,1.4
			c-0.1,0.5-0.1,0.9-0.1,1.3c-0.1,0.4-0.1,0.8-0.1,1c-0.1,0.5-0.3,0.9-0.5,1.2c-0.3,0.3-0.6,0.4-1.1,0.5c-0.7,0.1-1.3,0.2-1.8,0.2
			c-0.6,0-1.2,0-1.8-0.1c-0.5-0.1-0.9-0.2-1.1-0.4c-0.3-0.2-0.4-0.6-0.5-1.2c-0.1-0.5-0.1-1.2-0.1-1.9c0-0.7-0.1-1.4-0.2-2
			c-0.1-0.2-0.1-0.4-0.1-0.5l-0.2-0.3c-0.1-0.1-0.2-0.1-0.3-0.2c-0.1,0-0.2-0.1-0.4-0.2c-0.3-0.2-0.5-0.4-0.6-0.6
			c-0.2-0.2-0.1-0.4,0.1-0.7c0.1-0.1,0.3-0.2,0.5-0.3c0.2,0,0.5,0,0.9,0.1c0.5,0.1,0.9,0.3,1.3,0.4c0.4,0.2,0.6,0.5,0.7,1
			c0,0.3,0.1,0.5,0.1,0.7c0,0.2,0,0.4,0.1,0.6c0.5,0.1,1,0.1,1.6,0c0.5,0,1.1-0.1,1.6-0.1v-0.4c0-0.1,0-0.3,0-0.4
			C46.1,33.8,45.8,33.2,45.3,32.9z M49.9,28.6c-0.1,0.8-0.2,1.4-0.3,1.7c-0.2,0.4-0.4,0.6-0.8,0.7c-0.3,0.1-0.5,0-0.6-0.1
			c-0.2-0.1-0.3-0.3-0.3-0.7c-0.1-0.3-0.2-0.6-0.2-1.1c-0.1-0.4-0.1-0.9-0.1-1.4v-1c0-0.3,0-0.6,0-1h-0.5c-0.3,0-0.6,0-1,0.1
			c-0.3,0.1-0.7,0.1-1,0.2c-0.2,0.1-0.5,0-0.8-0.1c-0.3-0.1-0.6-0.2-0.8-0.3c-0.3-0.1-0.4-0.3-0.5-0.6c-0.1-0.2-0.2-0.5,0-0.8
			c0-0.1,0.1-0.2,0.3-0.3c0.2,0,0.4-0.1,0.6-0.1c0.2,0,0.4,0,0.7,0c0.2,0,0.5,0,0.7,0c0.4,0.1,0.8,0.1,1.2,0.1h1.1v-0.5
			c0-0.5,0-1,0-1.5c0-0.5-0.1-0.9-0.2-1.4c-0.1-0.3-0.3-0.6-0.5-1c-0.2-0.3-0.5-0.5-0.9-0.8c-0.3-0.1-0.5-0.4-0.7-0.6
			c-0.2-0.3-0.2-0.5,0.1-0.9c0.1-0.1,0.4-0.2,0.8-0.3c0.3,0,0.6,0,0.9,0c0.9,0.2,1.6,0.5,2.2,1.1c0.5,0.5,0.8,1.4,0.8,2.5v2.4v1.9
			c0,0.6-0.1,1.2-0.1,1.8C49.9,27.1,49.9,27.8,49.9,28.6z M46.1,37c-0.4,0.1-0.9,0.1-1.4,0.1c-0.6,0.1-1.1,0.1-1.7,0
			c0,0.3,0,0.5,0,0.7v0.8c0,0.3,0,0.4,0.1,0.5c0.1,0.1,0.3,0.2,0.5,0.2h0.8c0.3,0,0.6,0,0.9,0c0.2,0,0.3-0.1,0.5-0.2
			c0.1-0.1,0.1-0.3,0.1-0.8V37z"/>
		<path d="M70.4,33.4c0.8,0,1.4,0,1.9,0.1c0.4,0.1,0.7,0.5,0.7,1c0,0.4-0.1,0.7-0.4,0.9c-0.3,0.2-0.9,0.2-1.6,0.2
			c-1.4,0-2.6,0-3.7-0.1h-3.2h-3c-1,0-2.1,0-3.2,0c-0.3,0-0.6,0-1,0.1c-0.3,0.1-0.7,0.1-1,0.2c-0.2,0.1-0.5,0-0.8-0.1
			c-0.3-0.1-0.6-0.2-0.8-0.3c-0.3-0.1-0.4-0.3-0.5-0.6c-0.1-0.2-0.2-0.5,0-0.8c0-0.1,0.1-0.2,0.3-0.3c0.2,0,0.4-0.1,0.6-0.1
			c0.2,0,0.4,0,0.7,0c0.2,0,0.5,0,0.7,0c1.4,0.1,2.6,0.1,3.8,0.1c1.2,0,2.3,0,3.4,0c1.1,0,2.2,0,3.4-0.1
			C67.9,33.6,69.1,33.5,70.4,33.4z M64.2,24.1c-0.1,0.1-0.1,0.3-0.1,0.4C64,24.6,64,24.8,64,24.9c0.7,0.2,1.3,0.3,1.8,0.5
			c0.5,0.2,0.9,0.5,1.4,0.8c0.4,0.3,0.8,0.7,1.1,1c0.2,0.4,0.2,0.8-0.1,1.2c-0.3,0.4-0.6,0.5-1,0.5c-0.4,0-0.8-0.2-1.1-0.6
			c-0.4-0.4-0.8-0.9-1.2-1.2c-0.4-0.3-0.9-0.6-1.5-0.9c-0.3,0.5-0.8,1-1.4,1.5c-0.6,0.5-1.3,1-2.3,1.4c-0.1,0.1-0.2,0.1-0.4,0.1
			c-0.2,0.1-0.3,0.1-0.4,0.1c-0.2,0-0.3,0-0.4-0.1c-0.1,0-0.2-0.1-0.3-0.3c-0.1-0.2-0.1-0.5,0.1-0.7c0.2-0.2,0.4-0.4,0.7-0.5
			c0.3-0.2,0.6-0.4,1-0.7c0.3-0.3,0.6-0.5,0.9-0.9c0.2-0.3,0.4-0.6,0.6-1c0.1-0.3,0.2-0.7,0.3-1.1c0-0.3,0-0.6-0.1-0.9
			c-0.1-0.3-0.2-0.6-0.3-1.1c-0.1-0.3-0.1-0.5-0.1-0.8c0-0.2,0.1-0.4,0.3-0.4c0.2-0.1,0.4-0.1,0.7,0c0.2,0.1,0.4,0.2,0.6,0.4
			c0.2,0.1,0.4,0.3,0.6,0.6c0.1,0.3,0.3,0.6,0.4,0.9c0.1,0.3,0.2,0.6,0.2,0.9C64.2,23.7,64.2,23.9,64.2,24.1z"/>
		<path d="M78.5,30.8c0,0.4,0.1,0.6,0.3,0.7c0.1,0.1,0.3,0.1,0.5,0.1h0.7c0.2,0,0.4,0,0.6-0.1c0.4,0,0.7,0,1,0s0.4,0.3,0.5,0.8
			c0,0.4,0,0.6-0.2,0.8c-0.2,0.2-0.4,0.3-0.7,0.3c-0.5,0.1-0.9,0.1-1.3,0c-0.3,0-0.8,0-1.2,0c-0.8,0-1.4-0.2-1.7-0.5
			c-0.4-0.3-0.6-0.8-0.6-1.4c0-0.6,0-1.1,0.1-1.6c0-0.4,0-0.8-0.1-1.2c-0.1-0.5-0.3-0.9-0.5-1.3c-0.3-0.5-0.5-0.9-0.6-1.2
			c-0.1-0.3-0.1-0.5,0-0.7c0.1-0.2,0.3-0.4,0.7-0.4c0.3,0,0.7,0,1.1,0c0.3,0,0.6,0,0.9,0c0.2,0,0.4,0,0.7,0c0.2,0,0.4,0,0.7,0
			c0.2,0,0.5-0.1,0.9-0.1c0.3-0.1,0.6-0.1,0.9,0c0.2,0.1,0.3,0.3,0.4,0.7c0,0.4,0,0.7-0.2,0.8c-0.2,0.2-0.5,0.3-0.8,0.3
			c-0.5,0-0.9,0-1.3,0.1c-0.3,0.1-0.5,0.1-0.6,0.2c-0.1,0.1-0.2,0.4-0.1,0.7v1.3C78.4,29.6,78.4,30.2,78.5,30.8z M85.3,30.8
			c0,0.4,0.1,0.6,0.3,0.7c0.1,0.1,0.3,0.1,0.5,0.1h0.7c0.2,0,0.4,0,0.6-0.1c0.4,0,0.7,0,1,0c0.3,0.1,0.4,0.3,0.5,0.8
			c0,0.4,0,0.6-0.2,0.8c-0.2,0.2-0.4,0.3-0.7,0.3c-0.5,0.1-0.9,0.1-1.3,0c-0.3,0-0.8,0-1.2,0c-0.8,0-1.4-0.2-1.7-0.5
			c-0.4-0.3-0.6-0.8-0.6-1.4c0-0.2,0-0.5,0-0.9c0-0.4,0-0.8,0-1.2c0-0.4,0-0.8-0.1-1.1c-0.1-0.3-0.1-0.6-0.2-0.8
			c-0.3-0.5-0.5-0.9-0.6-1.2c-0.1-0.3-0.1-0.5,0-0.7c0.1-0.2,0.3-0.4,0.5-0.4c0.2,0,0.5,0,1,0c0.3,0,0.6,0,0.9,0c0.2,0,0.4,0,0.7,0
			c0.2,0,0.4,0,0.7,0c0.2,0,0.5-0.1,0.9-0.1c0.3-0.1,0.6-0.1,0.9,0c0.2,0.1,0.3,0.3,0.4,0.7c0,0.4,0,0.7-0.2,0.8
			c-0.2,0.2-0.5,0.3-0.8,0.3c-0.5,0-0.9,0-1.3,0.1c-0.3,0.1-0.5,0.1-0.6,0.2c-0.1,0.1-0.2,0.4-0.1,0.7v1.3
			C85.2,29.6,85.3,30.2,85.3,30.8z M93.5,39.2c-0.1,0.2-0.1,0.5-0.2,0.7c-0.1,0.3-0.2,0.5-0.5,0.7c-0.5,0-0.9-0.3-1-0.9
			c-0.1-0.5-0.2-1.4-0.2-2.4c0-2.3,0-4.7,0-7v-7c0-0.5,0-1,0-1.5c0-0.5-0.1-0.9-0.2-1.4c-0.1-0.3-0.3-0.6-0.5-1
			c-0.2-0.3-0.5-0.5-0.9-0.8c-0.3-0.1-0.5-0.4-0.7-0.6c-0.2-0.3-0.2-0.5,0.1-0.9c0.1-0.1,0.4-0.2,0.8-0.3c0.3,0,0.6,0,0.9,0
			c0.9,0.2,1.6,0.5,2.2,1.1c0.5,0.5,0.8,1.4,0.8,2.5c0,1.1,0,2.3,0,3.4c0,1.2,0,2.3,0,3.5c0.6-0.1,1.4-0.2,2.3-0.4
			c1.5-0.3,2.2,0.1,2.1,1.3c0,0.3-0.1,0.5-0.3,0.6C98,28.9,97.8,29,97.6,29c-0.2,0.1-0.5,0.1-0.7,0h-0.6H94
			c-0.1,1.9-0.1,3.8-0.2,5.5C93.8,36.3,93.7,37.9,93.5,39.2z"/>
		<path d="M101,25.2c0-0.6,0.1-1.2,0.3-1.8c0.2-0.5,0.5-1,0.9-1.3c0.3-0.3,0.8-0.6,1.3-0.8c0.5-0.2,1-0.3,1.6-0.3
			c0.5,0,1.1,0.1,1.6,0.3c0.5,0.2,0.9,0.5,1.3,0.8c0.3,0.4,0.6,0.8,0.9,1.3c0.2,0.5,0.3,1.1,0.3,1.8c0,0.7-0.1,1.3-0.3,1.7
			c-0.2,0.5-0.5,1-0.9,1.3c-0.4,0.4-0.9,0.6-1.3,0.8c-0.5,0.2-1.1,0.3-1.6,0.3c-0.6,0-1.1-0.1-1.6-0.3c-0.5-0.2-1-0.4-1.3-0.8
			c-0.4-0.3-0.7-0.8-0.9-1.3C101.1,26.5,101,25.9,101,25.2z M103.1,25.2c0,0.8,0.2,1.3,0.6,1.6c0.4,0.3,0.9,0.5,1.5,0.5
			c0.5,0,1.1-0.2,1.5-0.5c0.4-0.3,0.6-0.9,0.6-1.6c0-0.7-0.2-1.3-0.6-1.7c-0.4-0.3-0.9-0.5-1.5-0.5c-0.6,0-1.1,0.2-1.5,0.5
			C103.2,23.9,103.1,24.5,103.1,25.2z M109.1,38.1v0.3c0,0.1,0,0.2,0,0.3c0,0.2,0.1,0.4,0.3,0.4c0.1,0.1,0.2,0.1,0.4,0.1
			c0.4,0,1,0,1.7-0.1c0.7,0,1.3-0.1,2-0.3c0.3-0.1,0.6,0,0.8,0.1c0.2,0.2,0.3,0.4,0.4,0.8c0,0.5-0.2,0.8-0.8,0.9
			c-0.3,0-0.6,0.1-1,0.1c-0.4,0-0.9,0-1.3,0.1c-0.5,0-0.9,0-1.3,0.1h-0.9c-0.7,0-1.2-0.2-1.6-0.4c-0.4-0.2-0.5-0.6-0.4-1.2
			c0.1-0.4,0-0.8-0.1-1.1c-0.1-0.3-0.3-0.6-0.6-0.9c-0.2-0.2-0.3-0.5-0.3-0.7c0-0.2,0-0.3,0.1-0.5c0.1-0.2,0.3-0.3,0.6-0.4
			c0.3-0.1,0.6-0.1,1,0c0.5,0.1,1.1,0.1,1.9,0.1c0.8,0,1.5,0,2.2-0.1c0-0.1,0-0.3,0-0.5v-0.4c0-0.4-0.1-0.6-0.2-0.8
			c-0.2-0.1-0.4-0.1-0.8-0.1h-0.4c-0.1,0-0.2,0-0.3,0c-0.1,0-0.2,0.1-0.3,0.1c-0.1,0.1-0.3,0.1-0.6,0.1c-0.2,0.1-0.4,0.1-0.6,0.1
			c-0.3,0.1-0.5,0.1-0.8,0.1c-0.3,0-0.5-0.1-0.7-0.2c-0.3-0.1-0.5-0.2-0.6-0.4c-0.2-0.1-0.3-0.3-0.4-0.5c-0.1-0.2-0.1-0.4-0.1-0.6
			c0-0.2,0.2-0.3,0.5-0.4h0.8c0.5,0,1,0,1.3,0c0.3,0,0.6,0,1,0c0.3,0,0.5,0,0.8-0.1c0.2,0,0.5,0,0.8-0.1c1.1-0.2,1.8-0.1,2.1,0.2
			c0.3,0.3,0.4,1,0.3,1.9c-0.1,0.2-0.1,0.4-0.1,0.6c-0.1,0.2-0.1,0.4-0.2,0.6c0.5,0,0.9,0.2,1,0.7c0.1,0.3,0,0.6-0.2,0.8
			c-0.2,0.2-0.4,0.3-0.6,0.3c-0.3,0-0.6,0-1,0h-1.2h-1.1c-0.4,0-0.6,0.1-0.8,0.1c-0.3,0.1-0.5,0.1-0.6,0.2
			C109.2,37.8,109.1,37.9,109.1,38.1z M116.5,28.6c-0.1,0.8-0.2,1.4-0.3,1.7c-0.2,0.4-0.4,0.6-0.8,0.7c-0.3,0.1-0.5,0-0.6-0.1
			c-0.2-0.1-0.3-0.3-0.3-0.7c-0.1-0.3-0.2-0.6-0.2-1.1c-0.1-0.4-0.1-0.9-0.1-1.4v-2c0-0.7,0-1.5,0-2.4c0-0.5,0-1,0-1.5
			c0-0.5-0.1-0.9-0.2-1.4c-0.1-0.3-0.3-0.6-0.5-1c-0.2-0.3-0.5-0.5-0.9-0.8c-0.3-0.1-0.5-0.4-0.7-0.6c-0.2-0.3-0.2-0.5,0.1-0.9
			c0.1-0.1,0.4-0.2,0.8-0.3c0.3,0,0.6,0,0.9,0c0.9,0.2,1.6,0.5,2.2,1.1c0.5,0.5,0.8,1.4,0.8,2.5v2.4v1.9c0,0.6-0.1,1.2-0.1,1.8
			C116.5,27.1,116.5,27.8,116.5,28.6z"/>
		<path d="M129.6,30.2c0-0.3,0.1-0.5,0.3-0.7c0.2-0.1,0.3-0.2,0.5-0.2c0.3,0.1,0.5,0.2,0.7,0.3c0.1,0.2,0.1,0.4,0.1,0.7
			c-0.1,0.4-0.2,0.8-0.3,1.1c-0.2,0.3-0.4,0.6-0.7,0.9c-0.3,0.3-0.6,0.5-0.9,0.6c-0.3,0.2-0.7,0.2-1,0.2c-0.5,0-1-0.1-1.4-0.4
			c-0.4-0.3-0.9-0.6-1.2-1c-0.4-0.3-0.8-0.7-1.2-1c-0.4-0.3-0.8-0.4-1.2-0.4c-0.3,0-0.7,0.1-1.1,0.4c-0.4,0.3-0.6,0.7-0.8,1.2
			c-0.1,0.5-0.4,0.7-0.9,0.7c-0.2,0-0.3-0.1-0.4-0.3c-0.1-0.2-0.1-0.4-0.1-0.6c0-0.5,0.1-0.9,0.3-1.3c0.2-0.4,0.5-0.7,0.9-1
			c0.3-0.3,0.7-0.5,1.1-0.6c0.4-0.1,0.8-0.2,1.1-0.2c0.5,0,1,0.2,1.4,0.4c0.4,0.3,0.8,0.6,1.2,1c0.4,0.4,0.8,0.7,1.1,1
			c0.3,0.3,0.7,0.4,1.1,0.4c0.3,0,0.6-0.1,0.8-0.3C129.3,30.8,129.5,30.5,129.6,30.2z"/>
	</g>
	<g>
		<path d="M9.2,62.1l-1.8-3.4C6.9,57.7-6.1,32.5,3.5,17.8c5-7.6,15.1-10.9,30.1-9.8c11.6,0.8,26-1.6,39.9-3.9
			c23.2-3.9,47.2-7.9,61.4,2.1c6.7,4.7,9.7,16,6.9,25.6c-3.8,13-16.8,20.9-35.6,21.6c-21.9,0.9-65.4-3.5-89.3-6.1
			c-3.2-0.4-5.5,0.3-7,1.9c-2.8,3.2-1.5,9-1.5,9.1L9.2,62.1z M28.3,8.8C16.6,8.8,8.5,12,4.4,18.3C-3.1,29.8,4,48.6,7.1,55.6
			c0-2.1,0.3-4.9,2.1-6.9c1.7-1.9,4.3-2.6,7.8-2.3c24,2.7,67.4,7,89.2,6.1c25.1-1,32.5-13.5,34.7-20.9c3-10.3-0.9-20.6-6.5-24.5
			c-13.9-9.7-37.6-5.8-60.7-1.9C59.8,7.5,45.3,9.9,33.6,9C31.7,8.9,30,8.8,28.3,8.8z"/>
	</g>
</g>
</svg>
