<?xml version="1.0" encoding="utf-8"?>
<!-- Generator: Adobe Illustrator 23.1.0, SVG Export Plug-In . SVG Version: 6.00 Build 0)  -->
<svg version="1.1" id="Layer_1" xmlns="http://www.w3.org/2000/svg" xmlns:xlink="http://www.w3.org/1999/xlink" x="0px" y="0px"
	 viewBox="0 0 116.8 32.4" style="enable-background:new 0 0 116.8 32.4;" xml:space="preserve">
<style type="text/css">
	.st0{fill:#040000;}
</style>
<g>
	<path class="st0" d="M25.6,32.3h-2.5V13.9h-7.2V15c0,3-0.7,5.3-2.1,6.9c-1.4,1.6-3.4,2.5-5.9,2.5c-2.5,0-4.5-0.8-5.9-2.5
		C0.7,20.2,0,17.9,0,15v-3.3c0-2.9,0.7-5.2,2.1-6.9C3.5,3.1,5.5,2.3,8,2.3c2.5,0,4.4,0.8,5.8,2.4c1.4,1.6,2.1,3.9,2.1,6.9h7.2V0h2.5
		V32.3z M13.5,12.1c0-1.3-0.1-2.5-0.4-3.4c-0.3-0.9-0.6-1.7-1.1-2.3c-0.5-0.6-1.1-1-1.8-1.3C9.5,4.8,8.8,4.6,8,4.6S6.4,4.8,5.7,5
		C5,5.3,4.4,5.7,3.9,6.3S3.1,7.7,2.8,8.7c-0.3,0.9-0.4,2.1-0.4,3.4v2.4c0,1.3,0.1,2.5,0.4,3.4c0.3,1,0.6,1.7,1.1,2.3
		c0.5,0.6,1.1,1,1.8,1.3C6.4,21.9,7.1,22,8,22s1.6-0.1,2.3-0.4c0.7-0.3,1.3-0.7,1.8-1.3c0.5-0.6,0.9-1.4,1.1-2.3s0.4-2.1,0.4-3.4
		V12.1z"/>
	<path class="st0" d="M45.7,23.7H31v-21h2.5v7.9h9.8V2.7h2.5V23.7z M33.5,21.5h9.8v-8.6h-9.8V21.5z M54.3,12h5.4v2.2h-5.4v18.1h-2.5
		V0h2.5V12z"/>
	<path class="st0" d="M89.4,15.1v2.1H75.7v3.5h-2.5v-3.5H59.7v-2.1H89.4z M74.5,26.6c-0.2,0.4-0.6,0.8-1.1,1.1
		c-0.5,0.4-1.1,0.7-1.9,1.1c-1.4,0.7-2.8,1.3-4.3,1.9c-1.5,0.6-2.8,1.2-4.1,1.6l-0.9-2c1.5-0.5,2.8-1,4-1.5s2.4-1,3.7-1.6
		c0.6-0.3,1.2-0.6,1.6-0.9c0.4-0.3,0.8-0.6,1-1c0.2-0.4,0.4-0.8,0.5-1.3c0.1-0.5,0.2-1.1,0.2-1.8v-0.4h2.5v0.4
		c0,0.7,0.1,1.3,0.2,1.8c0.1,0.5,0.3,0.9,0.5,1.3c0.2,0.4,0.6,0.7,1,1c0.4,0.3,1,0.6,1.6,0.9c1.3,0.6,2.5,1.2,3.7,1.6s2.5,1,4,1.5
		l-0.9,2c-1.3-0.5-2.6-1-4.1-1.6c-1.5-0.6-2.9-1.3-4.3-1.9c-0.7-0.4-1.3-0.7-1.9-1.1C75.1,27.4,74.7,27,74.5,26.6z M74.5,12.7
		c-1.3,0-2.6-0.1-3.9-0.4c-1.2-0.2-2.3-0.6-3.2-1c-0.9-0.5-1.7-1-2.2-1.7c-0.6-0.7-0.8-1.5-0.8-2.4V6c0-0.9,0.3-1.7,0.8-2.4
		c0.6-0.7,1.3-1.3,2.2-1.7c0.9-0.5,2-0.8,3.2-1c1.2-0.2,2.5-0.3,3.9-0.3s2.6,0.1,3.9,0.4c1.2,0.2,2.3,0.6,3.2,1
		c0.9,0.5,1.7,1,2.2,1.7c0.6,0.7,0.8,1.5,0.8,2.4v1.2c0,0.9-0.3,1.7-0.8,2.4c-0.6,0.7-1.3,1.3-2.2,1.7c-0.9,0.5-2,0.8-3.2,1
		C77.1,12.5,75.8,12.7,74.5,12.7z M74.5,2.6c-1,0-1.9,0.1-2.8,0.2c-0.9,0.2-1.8,0.4-2.5,0.7c-0.7,0.3-1.3,0.7-1.8,1.1
		c-0.4,0.4-0.7,0.9-0.7,1.5V7c0,0.5,0.2,1,0.7,1.5c0.4,0.4,1,0.8,1.8,1.1c0.7,0.3,1.6,0.5,2.5,0.7c0.9,0.2,1.9,0.2,2.8,0.2
		s1.9-0.1,2.8-0.2s1.8-0.4,2.5-0.7c0.7-0.3,1.3-0.7,1.8-1.1C82,8,82.2,7.5,82.2,7V6.2c0-0.5-0.2-1-0.7-1.5c-0.4-0.4-1-0.8-1.8-1.1
		c-0.7-0.3-1.5-0.5-2.5-0.7S75.5,2.6,74.5,2.6z"/>
	<path class="st0" d="M107.4,2.9v20.9h-15V2.9H107.4z M104.9,5.2h-10v16.3h10V5.2z M116.8,32.3h-2.5V0h2.5V32.3z"/>
</g>
</svg>
