<?xml version="1.0" encoding="utf-8"?>
<!-- Generator: Adobe Illustrator 23.1.0, SVG Export Plug-In . SVG Version: 6.00 Build 0)  -->
<svg version="1.1" id="Layer_1" xmlns="http://www.w3.org/2000/svg" xmlns:xlink="http://www.w3.org/1999/xlink" x="0px" y="0px"
	 viewBox="0 0 230.4 84.2" style="enable-background:new 0 0 230.4 84.2;" xml:space="preserve">
<style type="text/css">
	.st0{fill:#040000;}
</style>
<g>
	<path d="M41.1,1.2v43.5H0V1.2h9.7v13.5h21.7V1.2H41.1z M14.5,84.2c-1.8,0-3.4-0.4-4.8-0.9c-1.6-0.6-2.8-1.5-3.8-2.5
		c-1.1-1.1-2-2.4-2.6-3.8c-0.6-1.6-0.9-3.2-0.9-4.9v-7.6c0-1.7,0.3-3.4,0.9-4.9c0.5-1.5,1.5-2.7,2.6-3.8c1-1,2.3-1.8,3.8-2.5
		c1.5-0.5,3-0.9,4.8-0.9h37.3c1.7,0,3.4,0.4,4.9,0.9c1.5,0.6,2.7,1.5,3.8,2.5c1,1.1,1.8,2.4,2.5,3.8c0.5,1.6,0.9,3.2,0.9,4.9v7.6
		c0,1.7-0.4,3.4-0.9,4.9c-0.6,1.5-1.5,2.7-2.5,3.8c-1.1,1-2.4,1.8-3.8,2.5c-1.6,0.5-3.2,0.9-4.9,0.9H14.5z M31.4,36.6V22.8H9.7v13.8
		H31.4z M54.3,65.2c0-1.3-0.5-2.5-1.3-3.4c-0.9-0.8-2.1-1.3-3.4-1.3H16.7c-1.4,0-2.5,0.5-3.3,1.3C12.5,62.8,12,64,12,65.2v6.1
		c0,1.3,0.5,2.5,1.4,3.4c0.8,0.8,1.9,1.3,3.3,1.3h32.9c1.3,0,2.5-0.5,3.4-1.3c0.8-0.9,1.3-2.1,1.3-3.4V65.2z M63,18.1h10.9v8.3H63
		v21.2h-9.7V0H63V18.1z"/>
	<path d="M120.8,52.9v21.2h32.4v8.3H78.7v-8.3h32.4V52.9H84.6V1.2h9.7V19h43.6V1.2h9.7v51.7H120.8z M137.8,27.3H94.2v17.3h43.6V27.3
		z"/>
	<path d="M177.2,44.7c-2,0-3.9-0.4-5.6-1.1c-1.7-0.6-3.2-1.6-4.4-2.9c-1.3-1.2-2.3-2.6-2.9-4.4c-0.7-1.6-1.1-3.6-1.1-5.6V15.1
		c0-2,0.4-3.8,1.1-5.6c0.6-1.6,1.6-3.2,2.9-4.5c1.2-1.2,2.6-2.2,4.4-2.9c1.6-0.6,3.6-1,5.6-1h13.1c2,0,3.8,0.4,5.6,1
		c1.6,0.7,3.2,1.7,4.5,2.9c1.2,1.3,2.2,2.8,2.9,4.5c0.6,1.7,1,3.6,1,5.6v15.6c0,2-0.4,3.9-1,5.6c-0.7,1.7-1.7,3.2-2.9,4.4
		c-1.3,1.3-2.8,2.3-4.5,2.9c-1.7,0.7-3.6,1.1-5.6,1.1H177.2z M177.7,84.2c-1.8,0-3.4-0.4-4.8-0.9c-1.6-0.6-2.8-1.5-3.8-2.5
		c-1.1-1.1-2-2.4-2.6-3.8c-0.6-1.6-0.9-3.2-0.9-4.9v-7.6c0-1.7,0.3-3.4,0.9-4.9c0.5-1.5,1.5-2.7,2.6-3.8c1-1,2.3-1.8,3.8-2.5
		c1.5-0.5,3-0.9,4.8-0.9h40.6c1.7,0,3.4,0.4,4.9,0.9c1.5,0.6,2.7,1.5,3.8,2.5c1,1.1,1.8,2.4,2.5,3.8c0.5,1.6,0.9,3.2,0.9,4.9v7.6
		c0,1.7-0.4,3.4-0.9,4.9c-0.6,1.5-1.5,2.7-2.5,3.8c-1.1,1-2.4,1.8-3.8,2.5c-1.6,0.5-3.2,0.9-4.9,0.9H177.7z M194.6,16
		c0-1.8-0.6-3.4-1.8-4.7c-1.3-1.2-2.8-1.8-4.7-1.8h-8.8c-1.9,0-3.5,0.6-4.7,1.8c-1.3,1.3-1.8,2.8-1.8,4.7v14c0,1.9,0.5,3.5,1.8,4.7
		c1.2,1.3,2.7,1.8,4.7,1.8h8.8c1.8,0,3.4-0.5,4.7-1.8c1.2-1.2,1.8-2.7,1.8-4.7V16z M220.8,65.2c0-1.3-0.5-2.5-1.3-3.4
		c-0.9-0.8-2.1-1.3-3.4-1.3h-36.2c-1.4,0-2.5,0.5-3.3,1.3c-0.9,0.9-1.4,2.1-1.4,3.4v6.1c0,1.3,0.5,2.5,1.4,3.4
		c0.8,0.8,1.9,1.3,3.3,1.3h36.2c1.3,0,2.5-0.5,3.4-1.3c0.8-0.9,1.3-2.1,1.3-3.4V65.2z M219.9,9.7V0h9.7v47.5h-9.7V36.3h-11.4v-8.4
		h11.4v-9.9h-11.4V9.7H219.9z"/>
</g>
</svg>
