<?xml version="1.0" encoding="utf-8"?>
<!-- Generator: Adobe Illustrator 23.1.0, SVG Export Plug-In . SVG Version: 6.00 Build 0)  -->
<svg version="1.1" id="Layer_1" xmlns="http://www.w3.org/2000/svg" xmlns:xlink="http://www.w3.org/1999/xlink" x="0px" y="0px"
	 viewBox="0 0 151.3 32.5" style="enable-background:new 0 0 151.3 32.5;" xml:space="preserve">
<style type="text/css">
	.st0{fill:#040000;}
</style>
<g>
	<path class="st0" d="M13.6,25.6v-7.3H3.1v-2.1h5V4.9H3.4V2.8h22.8v2.1h-4.7v11.3h5v2.1H16.1v7.3h13.6v2.2H0v-2.2H13.6z M10.6,16.2
		h8.6V4.9h-8.6V16.2z"/>
	<path class="st0" d="M60.1,25.6v2.2H30.4v-2.2H60.1z M56.2,19.4H34.8V2.7h21.1v2.1H37.2V10h18.5v2.1H37.2v5.2h19V19.4z"/>
	<path class="st0" d="M87,1V3h-4.6v6.3h4.8v2.1H76.9v3.3h13.6v2.1H60.8v-2.1h13.6v-3.3H64.2V9.3H69V3h-4.6V1H87z M86.1,19.7v7.4
		H67.6v3.3h19.4v2.1H65.2V25h18.5v-3.3H65.1v-2.1H86.1z M71.4,9.3H80V3h-8.6V9.3z"/>
	<path class="st0" d="M96.2,22.1h4.8c1.8,0,3.6-0.1,5.5-0.2c1.9-0.1,3.6-0.3,5.3-0.5l0.3,2.2c-1.9,0.3-3.8,0.5-5.8,0.6
		c-2,0.1-3.9,0.2-5.9,0.2h-6.7V11.9h11.7V4.8H93.7V2.6h14.2v11.5H96.2V22.1z M117.9,32.3h-2.5V0h2.5V32.3z"/>
	<path class="st0" d="M125.8,9.6c0-1.2,0.3-2.2,0.8-3.1c0.6-0.9,1.3-1.7,2.3-2.4s2.1-1.2,3.4-1.6c1.3-0.4,2.7-0.5,4.1-0.5
		c1.4,0,2.8,0.2,4.1,0.5c1.3,0.4,2.4,0.9,3.4,1.6c1,0.7,1.8,1.5,2.3,2.4c0.6,0.9,0.8,2,0.8,3.1v1.7c0,1.1-0.2,2-0.7,2.9
		c-0.5,0.9-1.2,1.7-2,2.3s-1.8,1.2-3,1.6c-1.1,0.4-2.3,0.7-3.6,0.8v6.6h13.6v2.2h-29.7v-2.2h13.6V19c-1.3-0.1-2.5-0.3-3.7-0.8
		c-1.1-0.4-2.1-0.9-3-1.6s-1.5-1.4-2-2.3c-0.5-0.9-0.7-1.9-0.7-2.9V9.6z M136.5,4.3c-1.2,0-2.2,0.1-3.2,0.4c-1,0.3-1.9,0.6-2.6,1.1
		c-0.7,0.5-1.3,1.1-1.7,1.7c-0.4,0.7-0.6,1.4-0.6,2.2v1.5c0,0.8,0.2,1.5,0.6,2.2c0.4,0.7,1,1.2,1.7,1.7c0.7,0.5,1.6,0.9,2.6,1.1
		s2.1,0.4,3.2,0.4c1.1,0,2.2-0.1,3.2-0.4s1.9-0.6,2.6-1.1c0.7-0.5,1.3-1.1,1.7-1.7c0.4-0.7,0.6-1.4,0.6-2.2V9.7
		c0-0.8-0.2-1.5-0.6-2.2c-0.4-0.7-1-1.2-1.7-1.7c-0.7-0.5-1.6-0.9-2.6-1.1C138.7,4.4,137.6,4.3,136.5,4.3z"/>
</g>
<g>
	<g>
		<path d="M-0.5,0.6l-1.8-3.4C-2.8-3.9-15.8-29-6.2-43.7c5-7.6,15.1-10.9,30.1-9.8c11.6,0.8,26-1.6,39.9-3.9
			c23.2-3.9,47.2-7.9,61.4,2.1c6.7,4.7,9.7,16,6.9,25.6c-3.8,13-16.8,20.9-35.6,21.6c-21.9,0.9-65.4-3.5-89.3-6.1
			c-3.2-0.4-5.5,0.3-7,1.9c-2.8,3.2-1.5,9-1.5,9.1L-0.5,0.6z M18.5-52.7c-11.7,0-19.7,3.2-23.9,9.5c-7.5,11.5-0.4,30.3,2.7,37.2
			c0-2.1,0.3-4.9,2.1-6.9c1.7-1.9,4.3-2.6,7.8-2.3c24,2.7,67.4,7,89.2,6.1c25.1-1,32.5-13.5,34.7-20.9c3-10.3-0.9-20.6-6.5-24.5
			C110.8-64.2,87-60.2,64-56.4c-14,2.3-28.4,4.7-40.1,3.9C22-52.6,20.2-52.7,18.5-52.7z"/>
	</g>
</g>
</svg>
