<?xml version="1.0" encoding="utf-8"?>
<!-- Generator: Adobe Illustrator 23.1.0, SVG Export Plug-In . SVG Version: 6.00 Build 0)  -->
<svg version="1.1" id="Layer_1" xmlns="http://www.w3.org/2000/svg" xmlns:xlink="http://www.w3.org/1999/xlink" x="0px" y="0px"
	 viewBox="0 0 142.9 62.1" style="enable-background:new 0 0 142.9 62.1;" xml:space="preserve">
<style type="text/css">
	.st0{fill:#040000;}
</style>
<g>
	<g>
		<path d="M16,26.2c0,0.3,0.1,0.5,0.2,0.5c0.1,0.1,0.2,0.1,0.4,0.1c0.2,0,0.4,0,0.6,0c0.2,0,0.5,0,0.7-0.1c0.2,0,0.5,0,0.7-0.1
			c0.2,0,0.4,0,0.6-0.1c0.3,0,0.5,0,0.7,0c0.2,0.1,0.3,0.3,0.4,0.6c0,0.3,0,0.5-0.2,0.6C20,27.9,19.8,28,19.6,28
			c-0.2,0-0.5,0.1-0.8,0.1c-0.4,0-0.7,0-1,0c-0.4,0-0.7,0-1,0h-0.8c-0.6,0-1-0.1-1.3-0.4c-0.3-0.2-0.5-0.6-0.5-1.1
			c0-0.3,0-0.5,0-0.8c-0.1-0.2-0.1-0.4-0.1-0.6c0-0.3-0.1-0.6-0.1-0.9c-0.1-0.3-0.2-0.5-0.3-0.8c-0.3-0.4-0.4-0.7-0.5-0.9
			c-0.1-0.2-0.1-0.4,0-0.5c0.1-0.1,0.3-0.3,0.5-0.3c0.2-0.1,0.5-0.1,0.8,0c0.6,0.1,1.2,0.1,2,0c0.7-0.1,1.4-0.2,2-0.3
			c0.3,0,0.5,0,0.7,0c0.2,0.1,0.3,0.3,0.4,0.6c0.1,0.3,0,0.5-0.1,0.7c-0.2,0.2-0.4,0.2-0.6,0.2c-0.5,0-1,0-1.4,0
			c-0.5,0.1-0.9,0.1-1.2,0.2c-0.3,0.1-0.5,0.2-0.5,0.2c0,0.1-0.1,0.3,0,0.5c0,0.3,0,0.6,0.1,0.9C15.9,25.4,16,25.8,16,26.2z
			 M23.8,32.8c0,0.5-0.1,0.9-0.3,1.2c-0.2,0.4-0.4,0.7-0.7,0.9c-0.3,0.2-0.6,0.4-1,0.6c-0.4,0.1-0.7,0.2-1.1,0.2
			c-0.4,0-0.7-0.1-1.1-0.2c-0.4-0.2-0.7-0.3-0.9-0.6c-0.3-0.2-0.5-0.5-0.7-0.9c-0.2-0.4-0.3-0.8-0.3-1.2c0-0.5,0.1-0.9,0.3-1.2
			c0.2-0.4,0.4-0.6,0.7-0.9c0.3-0.2,0.6-0.4,0.9-0.6c0.4-0.1,0.7-0.2,1.1-0.2c0.4,0,0.7,0.1,1.1,0.2c0.4,0.2,0.7,0.3,1,0.6
			c0.3,0.3,0.5,0.5,0.7,0.9C23.7,32,23.8,32.4,23.8,32.8z M22.2,32.8c0-0.5-0.2-0.8-0.4-1c-0.3-0.2-0.6-0.3-1-0.3s-0.7,0.1-1,0.3
			c-0.3,0.2-0.5,0.6-0.5,1c0,0.5,0.2,0.8,0.5,1c0.3,0.2,0.6,0.3,1,0.3s0.7-0.1,1-0.3C22.1,33.6,22.2,33.3,22.2,32.8z M24.2,27.4
			c0,0.6-0.1,1-0.2,1.3c-0.2,0.3-0.3,0.5-0.6,0.5c-0.2,0.1-0.4,0-0.5-0.1c-0.1-0.1-0.2-0.3-0.3-0.5c-0.1-0.2-0.1-0.5-0.1-0.8
			c0-0.3,0-0.7,0-1v-0.9c0-0.4,0-0.8,0-1.2v-1.3v-1.1c0-0.4,0-0.7,0-1.1c0-0.4-0.1-0.7-0.2-1c-0.1-0.3-0.2-0.5-0.4-0.7
			c-0.1-0.2-0.4-0.4-0.7-0.6c-0.2-0.1-0.4-0.3-0.5-0.5c-0.2-0.2-0.1-0.4,0.1-0.6c0.1-0.1,0.3-0.2,0.6-0.2c0.3,0,0.5,0,0.7,0
			c0.7,0.1,1.2,0.4,1.6,0.8c0.4,0.4,0.6,1,0.6,1.8v1.6c0,0.5,0,1,0,1.5c0.5-0.1,1-0.2,1.7-0.3c1.1-0.2,1.6,0.1,1.6,1
			c0,0.2-0.1,0.4-0.2,0.4c-0.1,0.1-0.3,0.2-0.4,0.2c-0.2,0.1-0.4,0.1-0.5,0H26h-1.6c0,0.5,0,0.9,0,1.4
			C24.3,26.3,24.3,26.8,24.2,27.4z"/>
		<path d="M29.8,23c-0.2,0-0.5,0-0.7-0.2c-0.1-0.1-0.2-0.2-0.3-0.3c-0.1-0.1-0.2-0.2-0.3-0.4c-0.1-0.1-0.2-0.3-0.2-0.4
			c-0.1-0.1-0.1-0.2,0-0.3c0,0,0.1,0,0.2,0h0.4c0.1,0,0.2,0,0.4,0c0.1,0,0.2,0,0.3,0c0.4,0,0.8,0,1.3,0c0.5,0,1,0,1.5,0
			c0.5,0,1-0.1,1.5-0.1c0.5,0,0.9-0.1,1.3-0.2c0.2,0,0.4,0,0.6,0.2c0.2,0.2,0.3,0.3,0.3,0.6c0,0.3-0.1,0.5-0.2,0.6
			c-0.2,0.1-0.4,0.2-0.6,0.2c-0.3,0-0.7,0-1.1,0c-0.5,0-0.9,0-1.4,0c0.1,0.3,0.2,0.5,0.3,0.7c0.1,0.3,0.1,0.5,0,0.7
			c-0.1,0.4-0.2,0.7-0.4,1.1c0.6,0.1,1,0.2,1.4,0.4c0.4,0.2,0.7,0.4,1,0.6c0.3,0.3,0.6,0.5,0.8,0.8c0.2,0.3,0.2,0.6-0.1,0.9
			c-0.2,0.3-0.4,0.4-0.7,0.4c-0.3,0-0.6-0.2-0.8-0.5c-0.3-0.4-0.6-0.7-0.9-0.9c-0.3-0.3-0.7-0.5-1.2-0.7c-0.3,0.4-0.6,0.8-1,1.2
			c-0.4,0.4-1,0.7-1.6,1c-0.1,0.1-0.2,0.1-0.3,0.1c-0.1,0.1-0.2,0.1-0.3,0.1c-0.1,0-0.2,0-0.3-0.1c-0.1,0-0.2-0.1-0.2-0.2
			c-0.1-0.2,0-0.4,0.1-0.5c0.2-0.2,0.3-0.3,0.5-0.4c0.3-0.2,0.5-0.4,0.8-0.6c0.3-0.3,0.5-0.5,0.7-0.8c0.2-0.3,0.4-0.6,0.5-0.9
			c0.1-0.3,0.2-0.6,0.2-0.9c0-0.2,0-0.3,0-0.5c0-0.1-0.1-0.4-0.2-0.6c-0.3,0-0.5,0-0.8,0.1C30.2,22.9,30,22.9,29.8,23z M39.3,32.8
			c0,0.5-0.1,0.9-0.3,1.2c-0.2,0.4-0.4,0.7-0.7,0.9c-0.3,0.2-0.6,0.4-1,0.6c-0.4,0.1-0.7,0.2-1.1,0.2c-0.4,0-0.7-0.1-1.1-0.2
			c-0.4-0.2-0.7-0.3-0.9-0.6c-0.3-0.2-0.5-0.5-0.7-0.9c-0.2-0.4-0.3-0.8-0.3-1.2c0-0.5,0.1-0.9,0.3-1.2c0.2-0.4,0.4-0.6,0.7-0.9
			c0.3-0.2,0.6-0.4,0.9-0.6c0.4-0.1,0.7-0.2,1.1-0.2c0.4,0,0.7,0.1,1.1,0.2c0.4,0.2,0.7,0.3,1,0.6c0.3,0.3,0.5,0.5,0.7,0.9
			C39.2,32,39.3,32.4,39.3,32.8z M37.7,32.8c0-0.5-0.2-0.8-0.4-1c-0.3-0.2-0.6-0.3-1-0.3s-0.7,0.1-1,0.3c-0.3,0.2-0.5,0.6-0.5,1
			c0,0.5,0.2,0.8,0.5,1c0.3,0.2,0.6,0.3,1,0.3s0.7-0.1,1-0.3C37.6,33.6,37.7,33.3,37.7,32.8z M39.8,27.4c0,0.6-0.1,1-0.2,1.3
			c-0.2,0.3-0.3,0.5-0.6,0.5c-0.2,0.1-0.4,0-0.5-0.1c-0.1-0.1-0.2-0.3-0.3-0.5c-0.1-0.2-0.1-0.5-0.1-0.8c0-0.3,0-0.7,0-1v-0.9
			c0-0.4,0-0.8,0-1.2v-1.3v-1.1c0-0.4,0-0.7,0-1.1c0-0.4-0.1-0.7-0.2-1c-0.1-0.3-0.2-0.5-0.4-0.7c-0.1-0.2-0.4-0.4-0.7-0.6
			c-0.2-0.1-0.4-0.3-0.5-0.5c-0.2-0.2-0.1-0.4,0.1-0.6c0.1-0.1,0.3-0.2,0.6-0.2c0.3,0,0.5,0,0.7,0c0.7,0.1,1.2,0.4,1.6,0.8
			c0.4,0.4,0.6,1,0.6,1.8v1.6c0,0.5,0,1,0,1.5c0.5-0.1,1-0.2,1.7-0.3c1.1-0.2,1.6,0.1,1.6,1c0,0.2-0.1,0.4-0.2,0.4
			c-0.1,0.1-0.3,0.2-0.4,0.2c-0.2,0.1-0.4,0.1-0.5,0h-0.5h-1.6c0,0.5,0,0.9,0,1.4C39.8,26.3,39.8,26.8,39.8,27.4z"/>
		<path d="M52,23.6c0-0.5,0.1-0.9,0.3-1.3c0.2-0.4,0.4-0.7,0.7-1c0.3-0.3,0.6-0.5,1-0.6c0.4-0.1,0.8-0.2,1.2-0.2
			c0.4,0,0.8,0.1,1.2,0.2c0.4,0.2,0.7,0.4,1,0.6c0.3,0.3,0.5,0.6,0.7,1c0.2,0.4,0.2,0.8,0.2,1.3c0,0.5-0.1,0.9-0.2,1.3
			c-0.2,0.4-0.4,0.7-0.7,1c-0.3,0.3-0.6,0.5-1,0.6c-0.4,0.2-0.8,0.2-1.2,0.2c-0.4,0-0.8,0-1.2-0.2c-0.4-0.1-0.7-0.3-1-0.6
			c-0.3-0.3-0.5-0.6-0.7-1C52,24.6,52,24.1,52,23.6z M53.5,23.6c0,0.6,0.1,1,0.4,1.2c0.3,0.3,0.6,0.4,1.1,0.4c0.4,0,0.8-0.1,1.1-0.4
			c0.3-0.3,0.4-0.7,0.4-1.2c0-0.5-0.1-0.9-0.4-1.2C55.8,22.2,55.4,22,55,22c-0.5,0-0.8,0.2-1.1,0.4C53.6,22.7,53.5,23.1,53.5,23.6z
			 M58,33.1v0.3c0,0.1,0,0.2,0,0.3c0,0.2,0.1,0.3,0.2,0.3c0.1,0,0.2,0.1,0.3,0.1c0.3,0,0.7,0,1.2-0.1c0.5,0,1-0.1,1.5-0.2
			c0.2-0.1,0.4,0,0.6,0.1c0.2,0.2,0.3,0.3,0.3,0.6c0,0.4-0.2,0.6-0.6,0.7c-0.2,0-0.4,0-0.7,0.1c-0.3,0-0.7,0-1,0c-0.4,0-0.7,0-1,0.1
			h-0.7c-0.5,0-0.9-0.1-1.2-0.3c-0.3-0.2-0.4-0.5-0.3-0.9c0-0.3,0-0.6,0-0.8c-0.1-0.3-0.3-0.5-0.4-0.7c-0.2-0.2-0.3-0.4-0.3-0.5
			c0-0.2,0-0.3,0.1-0.4c0-0.1,0.2-0.2,0.4-0.3c0.2,0,0.4,0,0.7,0c0.4,0,0.8,0.1,1.4,0.1c0.6,0,1.1,0,1.6-0.1c0-0.1,0-0.2,0-0.4v-0.3
			c0-0.3,0-0.5-0.2-0.6c-0.1-0.1-0.3-0.1-0.6-0.1h-0.3c-0.1,0-0.2,0-0.2,0c-0.1,0-0.2,0.1-0.2,0.1c-0.1,0.1-0.3,0.1-0.4,0.1
			c-0.1,0.1-0.3,0.1-0.5,0.1c-0.2,0.1-0.4,0.1-0.6,0.1c-0.2,0-0.4-0.1-0.5-0.2c-0.2,0-0.4-0.2-0.5-0.3c-0.2-0.1-0.3-0.2-0.3-0.4
			C56,29.5,56,29.4,56,29.2c0-0.2,0.2-0.3,0.4-0.3H57c0.4,0,0.7,0,1,0c0.3,0,0.5,0,0.7,0c0.2,0,0.4,0,0.6-0.1c0.2,0,0.4,0,0.6-0.1
			c0.8-0.1,1.3-0.1,1.6,0.2c0.3,0.3,0.3,0.7,0.3,1.4c0,0.2-0.1,0.3-0.1,0.5c-0.1,0.2-0.1,0.3-0.2,0.5c0.4,0,0.6,0.2,0.7,0.5
			c0,0.3,0,0.5-0.1,0.6c-0.1,0.2-0.3,0.3-0.5,0.2c-0.2,0-0.5,0-0.7,0h-0.9h-0.8c-0.3,0-0.5,0.1-0.6,0.1c-0.3,0-0.4,0.1-0.4,0.1
			C58,32.9,58,33,58,33.1z M63.3,26.1c0,0.6-0.1,1-0.2,1.3c-0.2,0.3-0.3,0.5-0.6,0.5c-0.2,0.1-0.4,0-0.5-0.1
			c-0.1-0.1-0.2-0.3-0.3-0.5c-0.1-0.2-0.1-0.5-0.1-0.8c0-0.3,0-0.7,0-1V24c0-0.5,0-1.1,0-1.8c0-0.4,0-0.7,0-1.1c0-0.4-0.1-0.7-0.2-1
			c-0.1-0.3-0.2-0.5-0.4-0.7c-0.2-0.2-0.4-0.4-0.7-0.6c-0.2-0.1-0.4-0.3-0.5-0.5S59.8,18,60,17.7c0.1-0.1,0.3-0.2,0.6-0.2
			c0.3,0,0.5,0,0.7,0c0.7,0.1,1.2,0.4,1.6,0.8c0.4,0.4,0.6,1,0.6,1.8v1.7v1.4c0,0.5,0,0.9,0,1.4C63.4,25.1,63.3,25.6,63.3,26.1z"/>
		<path d="M66.7,23.3c-0.3,0.1-0.5,0-0.7-0.1c-0.1-0.1-0.2-0.2-0.3-0.3c-0.1-0.1-0.3-0.3-0.4-0.4c-0.1-0.1-0.2-0.3-0.2-0.4
			c-0.1-0.1-0.1-0.2,0-0.3c0,0,0.1-0.1,0.2-0.1c0.1,0,0.3,0,0.4,0c0.1,0,0.3,0,0.4,0c0.1,0,0.2,0,0.3,0c0.5,0,0.9,0,1.5,0
			c0.5,0,1,0,1.6,0c0.5,0,1.1-0.1,1.6-0.1c0.5,0,1-0.1,1.5-0.1c0.3,0,0.6,0,0.8,0.2c0.2,0.2,0.3,0.4,0.3,0.6c0,0.3-0.1,0.5-0.3,0.7
			C73.1,23,72.9,23,72.7,23c-0.4,0-0.9,0-1.4-0.1c-0.6,0-1.1,0-1.6,0c-0.6,0-1.1,0.1-1.6,0.1C67.6,23.1,67.1,23.2,66.7,23.3z
			 M67.4,19.3c-0.2-0.1-0.3-0.3-0.3-0.4c-0.1-0.1,0-0.3,0-0.4c0.1-0.1,0.2-0.2,0.3-0.2c0.2,0,0.3,0,0.5,0.1c0.4,0.1,0.8,0.3,1.4,0.5
			c0.5,0.2,1,0.3,1.4,0.4c0.3,0.1,0.4,0.2,0.5,0.4c0,0.2,0,0.4,0,0.6c-0.1,0.3-0.3,0.5-0.5,0.5c-0.3,0-0.5,0-0.8,0
			c-0.5-0.1-0.9-0.3-1.4-0.5C68.1,19.8,67.7,19.6,67.4,19.3z M67.3,25.8c0-0.5,0.2-1,0.6-1.3c0.4-0.4,0.9-0.5,1.7-0.5
			c0.8,0,1.3,0.2,1.7,0.5c0.4,0.4,0.6,0.8,0.6,1.3s-0.2,1-0.6,1.3c-0.4,0.4-1,0.6-1.7,0.6c-0.8,0-1.4-0.2-1.7-0.6
			C67.5,26.8,67.3,26.4,67.3,25.8z M68.8,25.8c0,0.2,0.1,0.4,0.2,0.5c0.1,0.1,0.3,0.2,0.6,0.2c0.3,0,0.5-0.1,0.6-0.2
			c0.2-0.1,0.2-0.3,0.2-0.5s-0.1-0.4-0.2-0.5c-0.2-0.1-0.4-0.2-0.6-0.2c-0.3,0-0.5,0.1-0.6,0.2C68.9,25.5,68.8,25.6,68.8,25.8z
			 M72.2,33.1v0.3c0,0.1,0,0.2,0,0.3c0,0.2,0.1,0.3,0.2,0.3c0.1,0,0.2,0.1,0.3,0.1c0.3,0,0.7,0,1.2-0.1c0.5,0,1-0.1,1.5-0.2
			c0.2-0.1,0.4,0,0.6,0.1c0.2,0.2,0.3,0.3,0.3,0.6c0,0.4-0.2,0.6-0.6,0.7c-0.2,0-0.4,0-0.7,0.1c-0.3,0-0.7,0-1,0c-0.4,0-0.7,0-1,0.1
			h-0.7c-0.5,0-0.9-0.1-1.2-0.3c-0.3-0.2-0.4-0.5-0.3-0.9c0.1-0.3,0-0.6,0-0.8c-0.1-0.3-0.3-0.5-0.4-0.7c-0.2-0.2-0.3-0.4-0.3-0.5
			c0-0.2,0-0.3,0-0.4c0-0.1,0.2-0.2,0.4-0.3c0.2,0,0.4,0,0.7,0c0.4,0,0.8,0.1,1.4,0.1c0.6,0,1.1,0,1.6-0.1c0-0.1,0-0.2,0-0.4v-0.3
			c0-0.3-0.1-0.5-0.2-0.6c-0.1-0.1-0.3-0.1-0.6-0.1h-0.3c-0.1,0-0.2,0-0.2,0c-0.1,0-0.2,0.1-0.2,0.1c-0.1,0.1-0.3,0.1-0.4,0.1
			c-0.1,0.1-0.3,0.1-0.5,0.1c-0.2,0.1-0.4,0.1-0.6,0.1c-0.2,0-0.4-0.1-0.5-0.2c-0.2,0-0.4-0.2-0.5-0.3c-0.2-0.1-0.3-0.2-0.3-0.4
			c-0.1-0.1-0.1-0.3,0-0.5c0-0.2,0.2-0.3,0.4-0.3h0.6c0.4,0,0.7,0,1,0c0.3,0,0.5,0,0.7,0c0.2,0,0.4,0,0.6-0.1c0.2,0,0.4,0,0.6-0.1
			c0.8-0.1,1.3-0.1,1.6,0.2c0.3,0.3,0.3,0.7,0.3,1.4c-0.1,0.2-0.1,0.3-0.1,0.5c0,0.2-0.1,0.3-0.2,0.5c0.4,0,0.6,0.2,0.7,0.5
			c0,0.3,0,0.5-0.1,0.6c-0.2,0.2-0.3,0.3-0.5,0.2c-0.2,0-0.5,0-0.7,0h-0.9h-0.8c-0.3,0-0.5,0.1-0.6,0.1c-0.3,0-0.4,0.1-0.4,0.1
			C72.2,32.9,72.2,33,72.2,33.1z M76.9,26.1c-0.1,0.6-0.1,1-0.2,1.3c-0.2,0.3-0.3,0.5-0.6,0.5c-0.2,0.1-0.4,0-0.5-0.1
			c-0.1-0.1-0.2-0.3-0.3-0.5c-0.1-0.2-0.1-0.5-0.1-0.8c-0.1-0.3-0.1-0.7-0.1-1V24c0-0.5,0-1.1,0-1.8c0-0.4,0-0.7,0-1.1
			c0-0.4-0.1-0.7-0.2-1c-0.1-0.3-0.2-0.5-0.4-0.7c-0.1-0.2-0.4-0.4-0.7-0.6c-0.2-0.1-0.4-0.3-0.5-0.5c-0.2-0.2-0.1-0.4,0.1-0.6
			c0.1-0.1,0.3-0.2,0.6-0.2c0.3,0,0.5,0,0.7,0c0.7,0.1,1.2,0.4,1.6,0.8c0.4,0.4,0.6,1,0.6,1.8v2.6c0.2,0,0.5-0.1,0.8-0.1
			c0.3,0,0.6-0.1,0.9-0.2c1.1-0.2,1.6,0.1,1.6,1c0,0.2-0.1,0.4-0.2,0.4c-0.1,0.1-0.3,0.2-0.4,0.2c-0.2,0-0.4,0-0.5,0h-0.5h-1.6
			c0,0.4,0,0.7,0,1C76.9,25.3,76.9,25.7,76.9,26.1z"/>
		<path d="M95.3,28.3c0.3,0.1,0.5,0.4,0.5,0.7c0,0.3-0.1,0.5-0.3,0.6c-0.2,0.1-0.6,0.2-1.2,0.1c-0.9,0-1.6,0-2.3,0h-2.1
			c0,0.5,0,1.1,0,1.7c0,0.6,0,1.2-0.1,1.7c0,0.6-0.1,1-0.2,1.3c-0.2,0.3-0.3,0.5-0.6,0.5c-0.2,0-0.4,0-0.5-0.1
			c-0.1-0.1-0.2-0.3-0.3-0.5c-0.1-0.2-0.1-0.5-0.1-0.8c0-0.3,0-0.7,0-1v-1.2c0-0.5,0-1.1,0-1.6h-1.7c-0.6,0-1.2,0-1.8,0
			c-0.3,0-0.5,0-0.7,0.1c-0.3,0-0.5,0.1-0.7,0.1c-0.2,0-0.4,0-0.6-0.1c-0.2,0-0.4-0.1-0.6-0.3c-0.2-0.1-0.3-0.3-0.4-0.5
			c-0.1-0.1-0.1-0.4,0-0.6c0-0.1,0.1-0.2,0.3-0.2c0.1,0,0.3,0,0.5-0.1c0.2,0,0.3,0,0.5,0c0.2,0,0.4,0,0.5,0c1,0.1,1.9,0.1,2.8,0.1
			c0.9,0,1.7,0,2.5,0c0.8,0,1.6,0,2.5-0.1c0.8,0,1.7-0.1,2.7-0.1C94.5,28.1,95,28.2,95.3,28.3z M89.3,21.5c0-0.2-0.1-0.4-0.2-0.7
			c-0.1-0.2-0.2-0.4-0.3-0.7c-0.1-0.2-0.3-0.4-0.4-0.5c-0.2-0.1-0.3-0.2-0.5-0.3c-0.2-0.1-0.4-0.1-0.5,0c-0.2,0-0.2,0.2-0.2,0.3
			c0,0.2,0,0.4,0.1,0.6c0.1,0.3,0.2,0.6,0.2,0.8c0.1,0.3,0.1,0.5,0.1,0.7c0,0.3-0.1,0.6-0.2,0.8c-0.1,0.3-0.3,0.5-0.5,0.7
			c-0.2,0.3-0.4,0.5-0.7,0.7c-0.3,0.2-0.5,0.4-0.7,0.5c-0.2,0.1-0.4,0.3-0.5,0.4c-0.2,0.2-0.2,0.4-0.1,0.5c0.1,0.1,0.1,0.2,0.2,0.2
			c0.1,0,0.2,0.1,0.3,0c0.1,0,0.2,0,0.3,0c0.1,0,0.2-0.1,0.3-0.1c0.7-0.3,1.3-0.7,1.7-1c0.4-0.4,0.8-0.7,1-1.1
			c0.4,0.2,0.8,0.4,1.1,0.7c0.3,0.3,0.6,0.6,0.9,0.9c0.2,0.3,0.5,0.5,0.8,0.5c0.3,0,0.5-0.1,0.7-0.4c0.2-0.3,0.2-0.6,0-0.9
			c-0.2-0.3-0.5-0.5-0.8-0.8c-0.4-0.2-0.7-0.4-1-0.6c-0.4-0.1-0.8-0.3-1.3-0.4c0-0.1,0-0.2,0.1-0.3c0-0.1,0-0.2,0.1-0.3
			C89.4,22,89.4,21.8,89.3,21.5z"/>
		<path d="M98.3,24.1c0-0.5,0.1-0.9,0.3-1.3c0.2-0.4,0.4-0.7,0.7-1c0.3-0.3,0.6-0.5,1-0.6c0.4-0.1,0.8-0.2,1.2-0.2
			c0.4,0,0.8,0.1,1.2,0.2c0.4,0.1,0.7,0.4,1,0.6c0.3,0.3,0.5,0.6,0.7,1c0.2,0.4,0.2,0.8,0.2,1.3c0,0.5-0.1,0.9-0.2,1.3
			c-0.2,0.4-0.4,0.7-0.7,1c-0.3,0.3-0.6,0.5-1,0.6c-0.4,0.1-0.8,0.2-1.2,0.2c-0.4,0-0.8-0.1-1.2-0.2c-0.4-0.1-0.7-0.3-1-0.6
			c-0.3-0.3-0.5-0.6-0.7-1C98.4,25.1,98.3,24.6,98.3,24.1z M107.9,32.1c0,0.3-0.1,0.5-0.2,0.8c0.3,0.1,0.6,0.2,0.9,0.3
			c0.3,0.1,0.5,0.2,0.8,0.4c0.2,0.1,0.3,0.2,0.5,0.3c0.1,0.1,0.3,0.2,0.4,0.3c0.1,0.1,0.2,0.2,0.2,0.3c0,0.2,0,0.3,0,0.5
			c-0.1,0.2-0.2,0.3-0.3,0.4c-0.1,0.1-0.3,0.1-0.4,0.1s-0.3,0-0.5-0.1c-0.2-0.1-0.3-0.2-0.5-0.3l-0.9-0.6c-0.3-0.2-0.6-0.3-0.9-0.5
			c-0.3,0.3-0.6,0.6-0.9,0.8c-0.4,0.3-0.9,0.5-1.4,0.7c-0.2,0.1-0.4,0.1-0.6,0.1c-0.2,0-0.4-0.1-0.5-0.3c-0.1-0.2-0.1-0.4,0.1-0.6
			c0.2-0.2,0.3-0.3,0.5-0.4c0.2,0,0.4-0.2,0.6-0.3c-0.3-0.1-0.6-0.3-0.8-0.4c-0.3-0.1-0.6-0.2-0.9-0.3c-0.3,0.4-0.6,0.7-1,1
			c-0.5,0.3-1,0.6-1.7,0.8c-0.2,0.1-0.4,0.1-0.6,0.1c-0.3,0-0.4-0.1-0.5-0.3c-0.1-0.2-0.1-0.4,0.1-0.6c0.2-0.2,0.3-0.3,0.5-0.4
			c0.3-0.1,0.5-0.2,0.7-0.3c0.2-0.1,0.4-0.3,0.6-0.5c0.2-0.1,0.3-0.4,0.4-0.6c0.1-0.2,0.2-0.4,0.2-0.7c0-0.4-0.1-0.8-0.4-1.2
			c-0.1-0.2-0.2-0.4-0.3-0.5c-0.1-0.2,0-0.3,0.1-0.4c0.2-0.1,0.5-0.2,0.8-0.1c0.3,0.1,0.5,0.2,0.7,0.4c0.3,0.3,0.5,0.6,0.7,0.9
			c0.1,0.4,0.2,0.7,0.1,1.1c0,0.1,0,0.1,0,0.2c0,0.1,0,0.2,0,0.2c0.4,0.1,0.8,0.1,1.2,0.2c0.4,0.1,0.7,0.2,1.1,0.4
			c0.3-0.4,0.4-0.8,0.4-1.2c0-0.4-0.1-0.8-0.4-1.2c-0.2-0.2-0.2-0.4-0.3-0.5c-0.1-0.2,0-0.3,0.1-0.4c0.2-0.1,0.5-0.2,0.8-0.1
			c0.3,0.1,0.5,0.2,0.7,0.4c0.3,0.3,0.5,0.6,0.7,0.9C107.9,31.4,108,31.8,107.9,32.1z M99.8,24.1c0,0.6,0.1,1,0.4,1.2
			c0.3,0.3,0.6,0.4,1.1,0.4c0.4,0,0.8-0.1,1.1-0.4c0.3-0.3,0.4-0.7,0.4-1.2c0-0.5-0.1-0.9-0.4-1.2c-0.3-0.3-0.7-0.4-1.1-0.4
			c-0.5,0-0.8,0.1-1.1,0.4C99.9,23.2,99.8,23.6,99.8,24.1z M109.6,27.4c0,0.6-0.1,1-0.3,1.2c-0.2,0.2-0.3,0.4-0.5,0.6
			c-0.4,0-0.6-0.3-0.7-0.7c-0.1-0.4-0.2-1-0.2-1.8v-0.9c0-0.4,0-0.8,0-1.2v-1.3v-1.1c0-0.4,0-0.7,0-1.1c0-0.4-0.1-0.7-0.2-1
			c-0.1-0.3-0.2-0.5-0.4-0.7c-0.2-0.2-0.4-0.4-0.7-0.6c-0.2-0.1-0.4-0.3-0.5-0.5s-0.1-0.4,0.1-0.6c0.1-0.1,0.3-0.2,0.6-0.2
			c0.3,0,0.5,0,0.7,0c0.7,0.1,1.2,0.4,1.6,0.8c0.4,0.4,0.6,1,0.6,1.8v1.8v1.6c0,0.6,0,1.1,0,1.7C109.6,25.9,109.6,26.6,109.6,27.4z"
			/>
		<path d="M124.7,26.9c0.6,0,1.1,0,1.4,0.1c0.3,0.1,0.5,0.4,0.5,0.7c0,0.3-0.1,0.5-0.3,0.6c-0.2,0.1-0.6,0.2-1.2,0.2
			c-1,0-1.9,0-2.7,0h-2.3h-2.2c-0.8,0-1.5,0-2.3,0c-0.3,0-0.5,0-0.7,0c-0.3,0.1-0.5,0.1-0.7,0.1c-0.2,0-0.4,0-0.6-0.1
			c-0.2,0-0.4-0.1-0.6-0.3c-0.2-0.1-0.3-0.3-0.4-0.5c-0.1-0.1-0.1-0.4,0-0.6c0-0.1,0.1-0.2,0.3-0.2c0.1,0,0.3,0,0.5-0.1
			c0.2,0,0.3,0,0.5,0c0.2,0,0.4,0,0.5,0c1,0.1,1.9,0.1,2.8,0.1c0.9,0,1.7,0,2.5,0c0.8,0,1.6,0,2.5-0.1C122.8,27,123.7,27,124.7,26.9
			z M122.9,23.6c0,0.3,0,0.6-0.2,0.7c-0.2,0.1-0.5,0.2-0.7,0.2c-0.2,0-0.5,0-0.7,0h-0.9h-0.9c-0.3,0-0.6,0-0.8,0.1
			c-0.6,0.1-1,0-1.2-0.2c-0.3-0.2-0.4-0.5-0.4-1c-0.1-0.5-0.1-1-0.2-1.5c-0.1-0.5-0.2-0.9-0.2-1.3c0-0.2-0.1-0.3-0.1-0.5
			c-0.1-0.1-0.1-0.2-0.2-0.3c0,0-0.1-0.1-0.2-0.2c-0.1,0-0.1-0.1-0.2-0.3c-0.1-0.1-0.1-0.2-0.1-0.3c0-0.1,0-0.2,0.1-0.3
			c0.1-0.1,0.2-0.1,0.4-0.2c0.2,0,0.4,0,0.7,0c0.1,0.1,0.3,0.1,0.5,0.1c0.2,0.1,0.3,0.1,0.4,0.2c0.3,0.2,0.5,0.5,0.5,1
			c0,0.5,0,0.9,0,1.3c-0.1,0.5,0,0.9,0.1,1.4c0,0.2,0.1,0.4,0.2,0.4c0,0.1,0.2,0.1,0.4,0.1h0.6h0.8h0.8c0.3,0,0.4,0,0.5,0
			c0.4,0,0.6,0,0.9,0C122.7,23.2,122.8,23.3,122.9,23.6z M119.8,35.7c-0.8,0-1.4-0.1-1.7-0.4c-0.4-0.3-0.6-0.7-0.8-1.3
			c-0.1-0.2-0.1-0.4-0.1-0.6c0-0.2-0.1-0.4-0.2-0.7c0-0.1-0.1-0.3-0.1-0.4c-0.1-0.2-0.2-0.3-0.4-0.4c-0.3-0.1-0.4-0.3-0.5-0.5
			c-0.1-0.2-0.1-0.3,0.1-0.5c0.1-0.1,0.3-0.2,0.5-0.2c0.2,0,0.4,0,0.6,0.1c0.3,0.1,0.7,0.2,1,0.4c0.3,0.2,0.5,0.4,0.5,0.7
			c0,0.4,0,0.8,0.1,1.1c0,0.4,0.1,0.7,0.3,0.9c0.2,0.3,0.3,0.4,0.6,0.5c0.2,0.1,0.4,0.1,0.7,0.1c0.3,0,0.6,0,1-0.1
			c0.3-0.1,0.7-0.2,1.1-0.3c0.3-0.1,0.5-0.1,0.7-0.1c0.2,0,0.3,0.2,0.4,0.5c0,0.3,0,0.5-0.1,0.6c-0.1,0.1-0.3,0.3-0.5,0.3
			c-0.6,0.1-1,0.2-1.4,0.3C120.9,35.6,120.4,35.7,119.8,35.7z"/>
	</g>
	<g>
		<path d="M9.2,62.1l-1.8-3.4C6.9,57.7-6.1,32.5,3.5,17.8c5-7.6,15.1-10.9,30.1-9.8c11.6,0.8,26-1.6,39.9-3.9
			c23.2-3.9,47.2-7.9,61.4,2.1c6.7,4.7,9.7,16,6.9,25.6c-3.8,13-16.8,20.9-35.6,21.6c-21.9,0.9-65.4-3.5-89.3-6.1
			c-3.2-0.4-5.5,0.3-7,1.9c-2.8,3.2-1.5,9-1.5,9.1L9.2,62.1z M28.3,8.8C16.6,8.8,8.5,12,4.4,18.3C-3.1,29.8,4,48.6,7.1,55.6
			c0-2.1,0.3-4.9,2.1-6.9c1.7-1.9,4.3-2.6,7.8-2.3c24,2.7,67.4,7,89.2,6.1c25.1-1,32.5-13.5,34.7-20.9c3-10.3-0.9-20.6-6.5-24.5
			c-13.9-9.7-37.6-5.8-60.7-1.9C59.8,7.5,45.3,9.9,33.6,9C31.7,8.9,30,8.8,28.3,8.8z"/>
	</g>
</g>
</svg>
