<?xml version="1.0" encoding="utf-8"?>
<!-- Generator: Adobe Illustrator 23.1.0, SVG Export Plug-In . SVG Version: 6.00 Build 0)  -->
<svg version="1.1" id="Layer_1" xmlns="http://www.w3.org/2000/svg" xmlns:xlink="http://www.w3.org/1999/xlink" x="0px" y="0px"
	 viewBox="0 0 219.1 38.7" style="enable-background:new 0 0 219.1 38.7;" xml:space="preserve">
<style type="text/css">
	.st0{fill:#040000;}
</style>
<g>
	<path d="M11.9,5L4.6,20.9H0L9.4,0.5h4.8l9.1,20.4h-4.6L11.9,5z M3.7,38.3V24.9h4.4v9.6h25.3v3.8H3.7z M32.7,28.8h-4.4V0h4.4V28.8z"
		/>
	<path d="M45.9,19.1c-0.9,0-1.8-0.2-2.6-0.5c-0.8-0.3-1.5-0.8-2-1.3c-0.6-0.5-1-1.2-1.3-2c-0.3-0.8-0.5-1.6-0.5-2.6V7
		c0-0.9,0.2-1.8,0.5-2.6c0.3-0.8,0.8-1.5,1.3-2.1c0.5-0.5,1.2-1,2-1.3c0.8-0.3,1.6-0.5,2.6-0.5h6c0.9,0,1.8,0.2,2.6,0.5
		c0.8,0.3,1.5,0.8,2.1,1.3c0.5,0.6,1,1.3,1.3,2.1C58.2,5.2,58.3,6,58.3,7v5.7c0,0.9-0.2,1.8-0.5,2.6c-0.3,0.8-0.8,1.5-1.3,2
		c-0.6,0.6-1.3,1-2.1,1.3c-0.8,0.3-1.6,0.5-2.6,0.5H45.9z M41,38.7V22.5h4.4v4h20.1v-4H70v16.2H41z M53.9,7.3c0-0.8-0.3-1.6-0.8-2.1
		c-0.6-0.5-1.3-0.8-2.1-0.8h-4c-0.9,0-1.6,0.3-2.1,0.8c-0.6,0.6-0.8,1.3-0.8,2.1v4.9c0,0.9,0.3,1.6,0.8,2.1c0.5,0.6,1.3,0.8,2.1,0.8
		h4c0.8,0,1.6-0.3,2.1-0.8c0.5-0.5,0.8-1.3,0.8-2.1V7.3z M65.5,30.2H45.4V35h20.1V30.2z M70,20h-4.4V0H70V20z"/>
	<path d="M82.8,37.9c-0.9,0-1.8-0.2-2.6-0.5c-0.8-0.3-1.5-0.8-2-1.3c-0.6-0.6-1-1.3-1.3-2.1c-0.3-0.8-0.5-1.6-0.5-2.6V7
		c0-0.9,0.2-1.8,0.5-2.6c0.3-0.8,0.8-1.5,1.3-2.1c0.5-0.5,1.2-1,2-1.3c0.8-0.3,1.6-0.5,2.6-0.5h6c0.9,0,1.8,0.2,2.6,0.5
		c0.8,0.3,1.5,0.8,2.1,1.3c0.5,0.6,1,1.3,1.3,2.1C95.1,5.2,95.3,6,95.3,7v24.6c0,0.9-0.2,1.8-0.5,2.6c-0.3,0.8-0.8,1.5-1.3,2.1
		c-0.6,0.5-1.3,1-2.1,1.3c-0.8,0.3-1.6,0.5-2.6,0.5H82.8z M90.8,7.3c0-0.8-0.3-1.6-0.8-2.1c-0.6-0.5-1.3-0.8-2.1-0.8h-4
		c-0.9,0-1.6,0.3-2.1,0.8c-0.6,0.6-0.8,1.3-0.8,2.1v23.8c0,0.9,0.3,1.6,0.8,2.1c0.5,0.5,1.3,0.8,2.1,0.8h4c0.8,0,1.6-0.3,2.1-0.8
		c0.5-0.6,0.8-1.3,0.8-2.1V7.3z M105.4,15.4h5v3.9h-5v19.4h-4.4V0h4.4V15.4z"/>
	<path d="M114.1,20.9V0.5h4.4v16.6h16.3v3.8H114.1z M115.6,38.3V24.9h4.4v9.6h25.3v3.8H115.6z M144.5,28.8h-4.4V0h4.4V28.8z"/>
	<path d="M161.1,5l-7.3,15.9h-4.6l9.4-20.4h4.8l9.1,20.4h-4.6L161.1,5z M152.9,38.3V24.9h4.4v9.6h25.3v3.8H152.9z M181.8,28.8h-4.4
		V0h4.4V28.8z"/>
	<path d="M195.1,19.1c-0.9,0-1.8-0.2-2.6-0.5c-0.8-0.3-1.5-0.8-2-1.3c-0.6-0.5-1-1.2-1.3-2c-0.3-0.8-0.5-1.6-0.5-2.6V7
		c0-0.9,0.2-1.8,0.5-2.6c0.3-0.8,0.8-1.5,1.3-2.1c0.5-0.5,1.2-1,2-1.3c0.8-0.3,1.6-0.5,2.6-0.5h6c0.9,0,1.8,0.2,2.6,0.5
		c0.8,0.3,1.5,0.8,2.1,1.3c0.5,0.6,1,1.3,1.3,2.1c0.3,0.8,0.5,1.6,0.5,2.6v5.7c0,0.9-0.2,1.8-0.5,2.6c-0.3,0.8-0.8,1.5-1.3,2
		c-0.6,0.6-1.3,1-2.1,1.3c-0.8,0.3-1.6,0.5-2.6,0.5H195.1z M190.2,38.7V22.5h4.4v4h20.1v-4h4.4v16.2H190.2z M203.1,7.3
		c0-0.8-0.3-1.6-0.8-2.1c-0.6-0.5-1.3-0.8-2.1-0.8h-4c-0.9,0-1.6,0.3-2.1,0.8c-0.6,0.6-0.8,1.3-0.8,2.1v4.9c0,0.9,0.3,1.6,0.8,2.1
		c0.5,0.6,1.3,0.8,2.1,0.8h4c0.8,0,1.6-0.3,2.1-0.8c0.5-0.5,0.8-1.3,0.8-2.1V7.3z M214.7,30.2h-20.1V35h20.1V30.2z M219.1,20h-4.4V0
		h4.4V20z"/>
</g>
</svg>
