<?xml version="1.0" encoding="utf-8"?>
<!-- Generator: Adobe Illustrator 23.1.0, SVG Export Plug-In . SVG Version: 6.00 Build 0)  -->
<svg version="1.1" id="Layer_1" xmlns="http://www.w3.org/2000/svg" xmlns:xlink="http://www.w3.org/1999/xlink" x="0px" y="0px"
	 viewBox="0 0 163.3 31.9" style="enable-background:new 0 0 163.3 31.9;" xml:space="preserve">
<style type="text/css">
	.st0{fill:#040000;}
</style>
<g>
	<path class="st0" d="M24.1,18V0h2v31.9h-2V19.5H10.9L10,31.4h-2l0.8-11.9H0V18H24.1z M1.8,0.5h15.8l-1,13.9h-2.1l1-12.4H1.8V0.5z"
		/>
	<path class="st0" d="M40.1,2.3l-7.9,29h-2l8.6-30.8h2.7l8.3,30.8h-2L40.1,2.3z M56,13.5h4.2V15H56v16.9h-2V0h2V13.5z"/>
	<path class="st0" d="M63.8,0.5h13.8l-1.6,30.8h-2.1l1.6-29.3H63.8V0.5z M87.5,13.5h4.2V15h-4.2v16.9h-2V0h2V13.5z"/>
	<path class="st0" d="M113.6,7.1L106,17.3h-2.2L111.5,7h-7.2V5.4h18.7V7h-7.3l7.4,10.4h-2.2L113.6,7.1z M107.4,21H130v1.4h-9.2
		l10,9.5h-2.4l-9.8-9.3l-9.7,9.3h-2.4l9.9-9.5h-9.1V21z M119.1,0.1v1.5h-11V0.1H119.1z M129.6,8.2h4.2v1.5h-4.2v8.7h-2V0h2V8.2z"/>
	<path class="st0" d="M154.4,16.3h-16.8V0.5h16.2v1.5h-14.1v12.8h14.8V16.3z M138.9,31.6V21h2v9.1h22.3v1.5H138.9z M160.6,7.4V0h2
		v23.5h-2V8.9h-9V7.4H160.6z"/>
</g>
</svg>
