<?xml version="1.0" encoding="utf-8"?>
<!-- Generator: Adobe Illustrator 23.1.0, SVG Export Plug-In . SVG Version: 6.00 Build 0)  -->
<svg version="1.1" id="Layer_1" xmlns="http://www.w3.org/2000/svg" xmlns:xlink="http://www.w3.org/1999/xlink" x="0px" y="0px"
	 viewBox="0 0 151.6 32.3" style="enable-background:new 0 0 151.6 32.3;" xml:space="preserve">
<style type="text/css">
	.st0{fill:#040000;}
</style>
<g>
	<path class="st0" d="M5.9,16.7c0.6-0.6,1-1.2,1.3-1.7c0.3-0.5,0.6-1,0.8-1.5c0.2-0.5,0.3-1,0.4-1.6c0.1-0.5,0.1-1.2,0.1-1.9V2.4
		h2.6v7.4c0,0.7,0,1.3,0.1,1.8c0,0.5,0.1,1,0.3,1.4c0.1,0.5,0.4,0.9,0.6,1.4c0.3,0.4,0.7,0.9,1.1,1.5c0.7,0.8,1.6,1.8,2.6,2.8
		c1,1,2.2,2.2,3.6,3.4l-1.6,1.7c-1.1-1.1-2.2-2.1-3.1-3c-1-1-1.8-1.8-2.5-2.6c-0.5-0.6-1-1.1-1.5-1.6c-0.4-0.5-0.7-0.9-0.8-1.1h0
		c0,0.1-0.1,0.3-0.3,0.5s-0.4,0.5-0.6,0.8c-0.2,0.3-0.5,0.6-0.8,1c-0.3,0.3-0.6,0.7-0.8,0.9C7,19,6.6,19.4,6.2,19.8
		c-0.4,0.4-0.9,0.9-1.4,1.4s-1,1-1.6,1.5c-0.5,0.5-1.1,1-1.6,1.4L0,22.5c1.2-1,2.3-2,3.2-3C4.2,18.6,5.1,17.6,5.9,16.7z M25.3,12.1
		h5.4v2.2h-5.4v18h-2.5V0h2.5V12.1z"/>
	<path class="st0" d="M41.1,12.3c-0.1,0.3-0.4,0.7-0.9,1.2c-0.5,0.5-1.1,1.1-1.9,1.8c-0.3,0.3-0.7,0.6-1.1,1
		c-0.4,0.4-0.9,0.7-1.4,1.1c-0.5,0.4-1,0.8-1.5,1.1s-0.9,0.7-1.3,1l-1.5-1.8c1.1-0.8,2.1-1.5,3.2-2.4c1.1-0.8,2-1.7,2.9-2.5
		c0.4-0.4,0.8-0.8,1.1-1.2c0.3-0.4,0.5-0.8,0.7-1.1c0.2-0.4,0.3-0.8,0.3-1.2c0.1-0.4,0.1-0.9,0.1-1.3V4.3h-7.3V2.1h16.7v2.2h-6.9
		v3.5c0,0.5,0,1,0.1,1.4s0.2,0.8,0.3,1.2s0.4,0.8,0.8,1.1c0.3,0.4,0.8,0.8,1.4,1.3c0.6,0.5,1.3,1,2.2,1.7c0.9,0.7,1.9,1.4,2.9,2.1
		l-1.4,1.7c-0.7-0.5-1.5-1-2.2-1.6c-0.8-0.6-1.4-1.1-1.9-1.5c-0.8-0.7-1.5-1.3-2.2-1.8C41.5,12.9,41.2,12.5,41.1,12.3L41.1,12.3z
		 M40.3,29.7h18.1v2.2H37.8V21.2h2.5V29.7z M55.1,8.6V0h2.5v23.1h-2.5V10.8h-6.8V8.6H55.1z"/>
	<path class="st0" d="M70.5,17.8c-1.2,0-2.3-0.2-3.3-0.6c-1-0.4-1.8-1-2.5-1.6s-1.2-1.4-1.6-2.3c-0.4-0.8-0.6-1.7-0.6-2.6V8.5
		c0-0.9,0.2-1.7,0.6-2.6s0.9-1.6,1.6-2.3s1.5-1.2,2.5-1.6c1-0.4,2.1-0.6,3.3-0.6s2.3,0.2,3.3,0.6c1,0.4,1.8,1,2.5,1.6
		s1.2,1.4,1.6,2.3c0.4,0.8,0.6,1.7,0.6,2.6v2.1c0,0.9-0.2,1.7-0.6,2.6c-0.4,0.8-0.9,1.6-1.6,2.3s-1.5,1.2-2.5,1.6
		C72.8,17.5,71.7,17.8,70.5,17.8z M70.5,3.6c-0.8,0-1.6,0.1-2.3,0.4c-0.7,0.3-1.3,0.7-1.8,1.1c-0.5,0.5-0.9,1-1.1,1.6
		C65.1,7.4,65,8.1,65,8.7v1.7c0,0.7,0.1,1.3,0.4,1.9c0.3,0.6,0.6,1.2,1.1,1.6c0.5,0.5,1.1,0.8,1.8,1.1c0.7,0.3,1.4,0.4,2.3,0.4
		s1.6-0.1,2.3-0.4c0.7-0.3,1.3-0.7,1.8-1.1c0.5-0.5,0.9-1,1.1-1.6c0.3-0.6,0.4-1.2,0.4-1.9V8.7c0-0.7-0.1-1.3-0.4-1.9
		c-0.3-0.6-0.6-1.2-1.1-1.6c-0.5-0.5-1.1-0.8-1.8-1.1C72.1,3.8,71.4,3.6,70.5,3.6z M70.5,29.7h18.1v2.2H68V21.4h2.5V29.7z
		 M87.8,23.1h-2.5V0h2.5V23.1z"/>
	<path class="st0" d="M108.6,2.6v2.2H96.4V12h11v2.2h-11v7.6h4.5c1.7,0,3.4-0.1,5.2-0.2c1.8-0.1,3.6-0.3,5.6-0.6l0.3,2.2
		c-1.9,0.3-3.9,0.5-5.8,0.6s-3.9,0.2-5.8,0.2h-6.4V2.6H108.6z M116,11.9V0h2.5v32.3H116V14.1h-6.5v-2.3H116z"/>
	<path class="st0" d="M151.6,19.3v2.2h-7.9v10.8h-2.5V21.5h-8.8v10.8h-2.5V21.5h-7.9v-2.2H151.6z M147.2,1.2v13.9h-20.9V1.2h2.4v4.8
		h16.1V1.2H147.2z M144.8,13V8.2h-16.1V13H144.8z"/>
</g>
</svg>
